<svg width="480pt" height="290pt" viewBox="0 0 480 290" version="1.1" xmlns="http://www.w3.org/2000/svg" xmlns:xlink="http://www.w3.org/1999/xlink" xmlns:xml="http://www.w3.org/XML/1998/namespace">
  <g id="surface2" transform="matrix(0.3943594694137573,0,0,0.3943594694137573,-52.05,97.05)">
    <path style=" stroke:none;fill-rule:evenodd;fill:rgb(49.803812%,49.803812%,49.803812%);fill-opacity:1;" d="M 273.101562 89.148438 L 240.500000 76.500000 L 240.500000 87.500000 L 264.050781 97.199219 L 263.550781 99.898438 C 261.250000 113.101562 254.101562 125.550781 242.101562 137.250000 L 240.500000 138.800781 L 240.500000 149.949219 C 245.300781 145.648438 249.550781 141.382812 253.250000 137.148438 C 256.949219 132.882812 260.148438 128.398438 262.851562 123.699219 C 265.515625 119.000000 267.699219 113.832031 269.398438 108.199219 C 271.101562 102.566406 272.332031 96.214844 273.101562 89.148438 M 240.500000 94.898438 L 240.500000 129.000000 C 248.734375 120.132812 253.964844 110.949219 256.199219 101.449219 L 240.500000 94.898438 M 287.050781 80.500000 L 286.648438 85.148438 L 286.398438 87.750000 C 285.632812 96.382812 284.234375 104.214844 282.199219 111.250000 C 280.167969 118.285156 277.398438 124.785156 273.898438 130.750000 C 271.367188 135.050781 268.515625 139.066406 265.351562 142.800781 C 262.214844 146.566406 258.949219 150.082031 255.550781 153.351562 C 252.183594 156.582031 248.882812 159.617188 245.648438 162.449219 L 243.500000 164.300781 L 240.500000 166.949219 L 240.500000 158.898438 L 241.800781 157.750000 C 247.566406 152.750000 252.667969 147.816406 257.101562 142.949219 C 261.535156 138.117188 265.332031 133.000000 268.500000 127.601562 C 271.667969 122.234375 274.234375 116.250000 276.199219 109.648438 C 278.132812 103.082031 279.484375 95.601562 280.250000 87.199219 L 280.449219 84.601562 L 240.500000 69.101562 L 240.500000 62.449219 L 287.050781 80.500000 "/>
    <path style=" stroke:none;fill-rule:evenodd;fill:rgb(15.294084%,34.117572%,59.215556%);fill-opacity:1;" d="M 240.500000 159.000000 L 239.050781 157.898438 C 230.617188 151.433594 223.550781 144.484375 217.851562 137.050781 C 212.183594 129.648438 207.816406 121.632812 204.750000 113.000000 C 201.683594 104.398438 199.867188 95.101562 199.300781 85.101562 L 206.101562 82.500000 C 206.601562 96.332031 209.683594 108.785156 215.351562 119.851562 C 221.015625 130.949219 229.398438 141.000000 240.500000 150.000000 L 240.500000 138.800781 L 238.898438 137.250000 C 234.933594 133.417969 231.515625 129.535156 228.648438 125.601562 C 225.816406 121.632812 223.433594 117.464844 221.500000 113.101562 C 219.601562 108.699219 218.117188 103.917969 217.050781 98.750000 C 215.949219 93.617188 215.183594 87.933594 214.750000 81.699219 L 214.601562 79.148438 L 240.500000 69.101562 L 240.500000 62.449219 L 192.851562 80.949219 L 193.101562 85.449219 C 193.566406 93.515625 194.785156 101.101562 196.750000 108.199219 C 198.683594 115.332031 201.398438 122.082031 204.898438 128.449219 C 208.367188 134.816406 212.566406 140.851562 217.500000 146.550781 C 222.464844 152.250000 228.316406 157.683594 235.050781 162.851562 L 237.250000 164.550781 L 240.500000 167.050781 L 240.500000 159.000000 M 221.851562 83.750000 L 240.500000 76.500000 L 240.500000 129.101562 C 237.066406 125.535156 234.066406 121.667969 231.500000 117.500000 C 228.964844 113.367188 226.882812 108.566406 225.250000 103.101562 C 223.617188 97.667969 222.484375 91.214844 221.851562 83.750000 "/>
  </g>
  <g id="surface4">
    <text style="fill:rgb(40,85,153)" font-family="Palermo" font-size="41" id="0" transform="matrix(0.8412941098213196,0,0,0.8412941098213196,75.1,119.65) translate(2.495,41.095)" xml:space="preserve"><![CDATA[Datenschutz Osnabrück]]></text>
  </g>
</svg>